<mxfile host="app.diagrams.net" modified="2023-01-31T03:19:39.461Z" agent="5.0 (Windows NT 10.0; Win64; x64) AppleWebKit/537.36 (KHTML, like Gecko) Chrome/109.0.0.0 Safari/537.36 Edg/109.0.1518.55" etag="nwkm5MCds2N_tJgEUGxy" version="20.8.13" type="github">
  <diagram id="8IMljXs-BHl4rQWSzNpa" name="第 1 页">
    <mxGraphModel dx="1387" dy="764" grid="1" gridSize="10" guides="1" tooltips="1" connect="1" arrows="1" fold="1" page="1" pageScale="1" pageWidth="827" pageHeight="1169" math="0" shadow="0">
      <root>
        <mxCell id="0" />
        <mxCell id="1" parent="0" />
        <mxCell id="Zjlqt50KniSmozhhdSws-11" style="rounded=0;orthogonalLoop=1;jettySize=auto;html=1;exitX=1;exitY=0.3333333333333333;exitDx=0;exitDy=0;exitPerimeter=0;entryX=0;entryY=0.25;entryDx=0;entryDy=0;" edge="1" parent="1" source="Zjlqt50KniSmozhhdSws-1" target="Zjlqt50KniSmozhhdSws-8">
          <mxGeometry relative="1" as="geometry" />
        </mxCell>
        <mxCell id="Zjlqt50KniSmozhhdSws-15" style="edgeStyle=none;rounded=0;orthogonalLoop=1;jettySize=auto;html=1;exitX=1;exitY=1;exitDx=0;exitDy=0;exitPerimeter=0;entryX=0;entryY=0.5;entryDx=0;entryDy=0;fillColor=#d80073;strokeColor=#A50040;" edge="1" parent="1" source="Zjlqt50KniSmozhhdSws-1" target="Zjlqt50KniSmozhhdSws-10">
          <mxGeometry relative="1" as="geometry" />
        </mxCell>
        <mxCell id="Zjlqt50KniSmozhhdSws-1" value="Actor" style="shape=umlActor;verticalLabelPosition=bottom;verticalAlign=top;html=1;outlineConnect=0;" vertex="1" parent="1">
          <mxGeometry x="90" y="160" width="30" height="60" as="geometry" />
        </mxCell>
        <mxCell id="Zjlqt50KniSmozhhdSws-8" value="Account/User" style="swimlane;whiteSpace=wrap;html=1;" vertex="1" parent="1">
          <mxGeometry x="200" y="80" width="160" height="80" as="geometry" />
        </mxCell>
        <mxCell id="Zjlqt50KniSmozhhdSws-14" value="不分表租户" style="text;html=1;align=center;verticalAlign=middle;resizable=0;points=[];autosize=1;strokeColor=#d79b00;fillColor=#ffe6cc;" vertex="1" parent="Zjlqt50KniSmozhhdSws-8">
          <mxGeometry x="40" y="40" width="80" height="30" as="geometry" />
        </mxCell>
        <mxCell id="Zjlqt50KniSmozhhdSws-13" style="edgeStyle=none;rounded=0;orthogonalLoop=1;jettySize=auto;html=1;exitX=0;exitY=0.5;exitDx=0;exitDy=0;" edge="1" parent="1" source="Zjlqt50KniSmozhhdSws-8">
          <mxGeometry relative="1" as="geometry">
            <mxPoint x="130" y="190" as="targetPoint" />
          </mxGeometry>
        </mxCell>
        <mxCell id="Zjlqt50KniSmozhhdSws-16" style="edgeStyle=none;rounded=0;orthogonalLoop=1;jettySize=auto;html=1;exitX=0;exitY=0.75;exitDx=0;exitDy=0;fillColor=#d80073;strokeColor=#A50040;" edge="1" parent="1" source="Zjlqt50KniSmozhhdSws-10">
          <mxGeometry relative="1" as="geometry">
            <mxPoint x="120" y="240" as="targetPoint" />
          </mxGeometry>
        </mxCell>
        <mxCell id="Zjlqt50KniSmozhhdSws-10" value="Account_1/User_1" style="swimlane;whiteSpace=wrap;html=1;" vertex="1" parent="1">
          <mxGeometry x="200" y="240" width="160" height="80" as="geometry" />
        </mxCell>
        <mxCell id="Zjlqt50KniSmozhhdSws-17" value="分表租户" style="text;html=1;align=center;verticalAlign=middle;resizable=0;points=[];autosize=1;strokeColor=#82b366;fillColor=#d5e8d4;" vertex="1" parent="Zjlqt50KniSmozhhdSws-10">
          <mxGeometry x="45" y="40" width="70" height="30" as="geometry" />
        </mxCell>
        <mxCell id="Zjlqt50KniSmozhhdSws-28" style="rounded=0;orthogonalLoop=1;jettySize=auto;html=1;exitX=1;exitY=0.3333333333333333;exitDx=0;exitDy=0;exitPerimeter=0;entryX=0;entryY=0.25;entryDx=0;entryDy=0;" edge="1" parent="1" source="Zjlqt50KniSmozhhdSws-30" target="Zjlqt50KniSmozhhdSws-32">
          <mxGeometry relative="1" as="geometry" />
        </mxCell>
        <mxCell id="Zjlqt50KniSmozhhdSws-29" style="edgeStyle=none;rounded=0;orthogonalLoop=1;jettySize=auto;html=1;exitX=1;exitY=1;exitDx=0;exitDy=0;exitPerimeter=0;entryX=0;entryY=0.5;entryDx=0;entryDy=0;strokeColor=#A50040;fillColor=#d80073;" edge="1" parent="1" source="Zjlqt50KniSmozhhdSws-30" target="Zjlqt50KniSmozhhdSws-34">
          <mxGeometry relative="1" as="geometry" />
        </mxCell>
        <mxCell id="Zjlqt50KniSmozhhdSws-30" value="Actor" style="shape=umlActor;verticalLabelPosition=bottom;verticalAlign=top;html=1;outlineConnect=0;" vertex="1" parent="1">
          <mxGeometry x="450" y="160" width="30" height="60" as="geometry" />
        </mxCell>
        <mxCell id="Zjlqt50KniSmozhhdSws-31" style="edgeStyle=none;rounded=0;orthogonalLoop=1;jettySize=auto;html=1;exitX=0;exitY=0.5;exitDx=0;exitDy=0;" edge="1" parent="1" source="Zjlqt50KniSmozhhdSws-32">
          <mxGeometry relative="1" as="geometry">
            <mxPoint x="490" y="190" as="targetPoint" />
          </mxGeometry>
        </mxCell>
        <mxCell id="Zjlqt50KniSmozhhdSws-32" value="Account/User" style="swimlane;whiteSpace=wrap;html=1;" vertex="1" parent="1">
          <mxGeometry x="560" y="80" width="160" height="80" as="geometry" />
        </mxCell>
        <mxCell id="Zjlqt50KniSmozhhdSws-35" value="不分表租户" style="text;html=1;align=center;verticalAlign=middle;resizable=0;points=[];autosize=1;strokeColor=#d79b00;fillColor=#ffe6cc;" vertex="1" parent="Zjlqt50KniSmozhhdSws-32">
          <mxGeometry x="40" y="40" width="80" height="30" as="geometry" />
        </mxCell>
        <mxCell id="Zjlqt50KniSmozhhdSws-33" style="edgeStyle=none;rounded=0;orthogonalLoop=1;jettySize=auto;html=1;exitX=0;exitY=0.75;exitDx=0;exitDy=0;fillColor=#d80073;strokeColor=#A50040;" edge="1" parent="1" source="Zjlqt50KniSmozhhdSws-34">
          <mxGeometry relative="1" as="geometry">
            <mxPoint x="480" y="240" as="targetPoint" />
          </mxGeometry>
        </mxCell>
        <mxCell id="Zjlqt50KniSmozhhdSws-48" style="edgeStyle=none;rounded=0;orthogonalLoop=1;jettySize=auto;html=1;exitX=0.5;exitY=0;exitDx=0;exitDy=0;entryX=0.5;entryY=1;entryDx=0;entryDy=0;strokeColor=none;shape=flexArrow;fillColor=#d80073;startArrow=block;" edge="1" parent="1" source="Zjlqt50KniSmozhhdSws-34" target="Zjlqt50KniSmozhhdSws-32">
          <mxGeometry relative="1" as="geometry" />
        </mxCell>
        <mxCell id="Zjlqt50KniSmozhhdSws-34" value="Account_1/User_1" style="swimlane;whiteSpace=wrap;html=1;" vertex="1" parent="1">
          <mxGeometry x="560" y="240" width="160" height="80" as="geometry" />
        </mxCell>
        <mxCell id="Zjlqt50KniSmozhhdSws-36" value="分表租户" style="text;html=1;align=center;verticalAlign=middle;resizable=0;points=[];autosize=1;strokeColor=#82b366;fillColor=#d5e8d4;" vertex="1" parent="Zjlqt50KniSmozhhdSws-34">
          <mxGeometry x="45" y="40" width="70" height="30" as="geometry" />
        </mxCell>
      </root>
    </mxGraphModel>
  </diagram>
</mxfile>
